<?xml version="1.0" encoding="utf-8"?>
<!-- Generator: Adobe Illustrator 24.3.0, SVG Export Plug-In . SVG Version: 6.00 Build 0)  -->
<svg version="1.1" id="katman_1" xmlns="http://www.w3.org/2000/svg" xmlns:xlink="http://www.w3.org/1999/xlink" x="0px" y="0px"
	 viewBox="0 0 149 155.2" style="enable-background:new 0 0 149 155.2;" xml:space="preserve">
<style type="text/css">
	.st0{clip-path:url(#SVGID_1_);fill:url(#SVGID_2_);}
</style>
<g>
	<defs>
		<path id="SVGID_4_" d="M38.2,125.5l15.7-2.9l13.1,8.4l5.9-31c-0.4,7.6-1.3,25.8-1.3,25.8l1,5.2l13.1-8.4l15.7,2.9l-6.8-35.4
			c-6.3,4.1-13.6,6.6-21.5,7.1c-0.9,0.1-1.8,0.1-2.7,0.1c-9.4,0-18.1-2.9-25.3-7.9L38.2,125.5z M48.5,47.1l22-7.1l15.7,5l-15.7-5.8
			L48.5,47.1z M56.5,65.1V51l-10.6-3.8l24.6-8.9l24.6,8.9l-6.5,2.4c0.1,0.2,0.2,0.5,0.2,0.8c0,0.7,0,8.5,0,12.4
			c0.1,0,0.2,0.1,0.2,0.3v0.9c0,0,0,0.1,0,0.1c0,0.6,0.1,1.2,0.5,1.7c-0.1-0.1-0.1-0.1-0.2-0.2c0.1,0.2,0.1,0.3,0.2,0.5
			c-0.1-0.1-0.2-0.2-0.3-0.3c0.1,0.3,0.3,0.5,0.5,0.7c-0.1,0-0.2-0.1-0.3-0.2c0.1,0.2,0.3,0.4,0.5,0.5c-0.4-0.1-0.8-0.3-1.2-0.6
			c-0.2-0.1-0.4-0.3-0.5-0.5c0,0.1,0,0.2,0,0.2c-0.2-0.3-0.4-0.6-0.4-1c0-0.3,0-0.6,0-0.9c0,0-0.1-0.1-0.1-0.2V63
			c0-0.1,0.1-0.2,0.2-0.3c0-7.3,0-11.9,0-12.4c0-0.3-0.1-0.4-0.3-0.5l-17.1,6.2l14-3.4v12.5c0,1.2-6.3,2.2-14,2.2
			S56.5,66.4,56.5,65.1 M34.5,52.8c0,19.8,16.1,36,36,36c19.8,0,36-16.1,36-36c0-19.8-16.1-36-36-36C50.7,16.8,34.5,33,34.5,52.8
			 M32.3,52.8c0-21.1,17.1-38.2,38.2-38.2c21.1,0,38.2,17.1,38.2,38.2c0,21.1-17.1,38.2-38.2,38.2C49.4,91,32.3,73.9,32.3,52.8
			 M28,52.8c0,23.4,19.1,42.5,42.5,42.5c23.4,0,42.5-19.1,42.5-42.5c0-23.4-19.1-42.5-42.5-42.5C47.1,10.3,28,29.3,28,52.8"/>
	</defs>
	<clipPath id="SVGID_1_">
		<use xlink:href="#SVGID_4_"  style="overflow:visible;"/>
	</clipPath>
	
		<linearGradient id="SVGID_2_" gradientUnits="userSpaceOnUse" x1="-398.2467" y1="392.6404" x2="-397.2467" y2="392.6404" gradientTransform="matrix(85.5992 -15.0934 -15.0934 -85.5992 40045.7148 27676.6113)">
		<stop  offset="0" style="stop-color:#FDCF5E"/>
		<stop  offset="0.1724" style="stop-color:#FDCF5E"/>
		<stop  offset="1" style="stop-color:#A96405"/>
	</linearGradient>
	<polygon class="st0" points="7.3,13.9 110.5,-4.3 133.7,127.4 30.5,145.6 	"/>
</g>
</svg>
